<svg viewBox="0 0 150 50" xmlns="http://www.w3.org/2000/svg" fill-rule="evenodd" clip-rule="evenodd" stroke-linejoin="round" stroke-miterlimit="1.414"><path fill="#FF1E38" d="M0 0h150v50H0z"/><path d="M29.363 2.034c-.045-.674-.477-1.052-1.15-1.007L3.395 2.687c-.74.05-1.052.477-1.006 1.15l3.012 45.046c.045.674.41 1.057 1.15 1.007l7.014-.47c.674-.044 1.052-.476 1.007-1.15L13.45 31.48l12.677-.85c.675-.044 1.057-.408 1.007-1.15l-.45-6.743c-.046-.674-.478-1.052-1.152-1.007l-12.677.848-.77-11.53 16.722-1.12c.674-.045 1.052-.476 1.007-1.15l-.45-6.744zM38.913 47.997c-.743.026-1.095-.368-1.118-1.043l-1.55-45.12c-.024-.675.3-1.092 1.042-1.117l7.025-.242c.675-.023 1.094.368 1.118 1.044l1.55 45.118c.024.675-.367 1.095-1.042 1.118l-7.025.24zM77.504.07c.744-.002 1.083.402 1.086 1.078l.03 6.758c.003.676-.333 1.083-1.076 1.086l-7.84.035.166 37.306c.003.743-.333 1.082-1.077 1.086l-7.028.03c-.676.003-1.083-.333-1.087-1.077l-.165-37.305-7.84.034c-.675.003-1.083-.4-1.086-1.076l-.03-6.76c-.003-.674.4-1.082 1.077-1.085l24.87-.11zM108.764 1.05c.743.026 1.066.443 1.042 1.118l-.24 6.754c-.025.676-.377 1.07-1.12 1.042l-7.835-.28-1.328 37.283c-.027.743-.376 1.07-1.12 1.043l-7.023-.25c-.677-.025-1.07-.377-1.044-1.12l1.33-37.282-7.835-.28c-.674-.024-1.065-.444-1.04-1.12l.24-6.753C82.814.53 83.234.14 83.91.163l24.854.886zM141.114 3.587c-.808-.07-1.315.29-1.643.94l-9.065 16.637-6.014-17.967c-.21-.697-.645-1.142-1.453-1.213l-6.732-.594c-1.01-.09-1.54.542-1.214 1.453l9.857 29.026-1.437 16.29c-.077.876.352 1.39 1.227 1.466l6.463.57c.876.077 1.388-.353 1.466-1.228l1.437-16.292 14.784-26.852c.48-.84.07-1.554-.94-1.643l-6.733-.593z" fill="#fff" fill-rule="nonzero"/></svg>